<svg width="50" height="50" viewBox="0 0 50 50" fill="none" xmlns="http://www.w3.org/2000/svg">
<g clip-path="url(#clip0_4_19)">
<path d="M16 48H34C41.7316 48 48 41.7316 48 34V16C48 8.26843 41.7316 2 34 2H16C8.26843 2 2 8.26843 2 16V34C2 41.7316 8.26843 48 16 48Z" stroke="white" stroke-width="4" stroke-miterlimit="10"/>
<path d="M25 13C21.8174 13 18.7652 14.2643 16.5147 16.5147C14.2643 18.7652 13 21.8174 13 25C13 28.1826 14.2643 31.2348 16.5147 33.4853C18.7652 35.7357 21.8174 37 25 37C28.1826 37 31.2348 35.7357 33.4853 33.4853C35.7357 31.2348 37 28.1826 37 25C37 21.8174 35.7357 18.7652 33.4853 16.5147C31.2348 14.2643 28.1826 13 25 13Z" stroke="white" stroke-width="4" stroke-miterlimit="10"/>
<path d="M37 11C36.4696 11 35.9609 11.2107 35.5858 11.5858C35.2107 11.9609 35 12.4696 35 13C35 13.5304 35.2107 14.0391 35.5858 14.4142C35.9609 14.7893 36.4696 15 37 15C37.5304 15 38.0391 14.7893 38.4142 14.4142C38.7893 14.0391 39 13.5304 39 13C39 12.4696 38.7893 11.9609 38.4142 11.5858C38.0391 11.2107 37.5304 11 37 11Z" fill="white"/>
</g>
<defs>
<clipPath id="clip0_4_19">
<rect width="50" height="50" fill="white"/>
</clipPath>
</defs>
</svg>
